/* XPM */
static char * boxbot4k_xpm[] = {
"16 64 3 1",
" 	c #000000",
".	c #FFFFFF",
"+	c #B5B5B5",
"     .....+     ",
"     .+.+.+     ",
"     .....+     ",
"     .+++.+     ",
"     .....+     ",
"     ++++++     ",
"  .+.......+.+  ",
"  .+.......+.+  ",
"  .+.+++++.+.+  ",
"  .+.+++++.+.+  ",
"  ++.......+++  ",
"    ++++++++    ",
"     .+  .+     ",
"     .+  .+     ",
"   ...+  ...+   ",
"   ++++  ++++   "
"               +",
" ..++......++..+",
" ..  ......  ..+",
"++++++++++++++++",
"   +   +   +   +",
" ..+ ..+ ..+ ..+",
" ..+ ..+ ..+ ..+",
" ..+ ..+ ..+ ..+",
" ..+ ..+ ..+ ..+",
" ..+ ..+ ..+ ..+",
" ..+ ..+ ..+ ..+",
"++++++++++++++++",
"               +",
" ..++......++..+",
" ..  ......  ..+",
"++++++++++++++++",
"        ........",
" ++++++ .      .",
" ++++++ .      .",
" ++++++ .      .",
" ++++++ .      .",
" ++++++ .      .",
" ++++++ .      .",
"        ........",
"........        ",
".      . ++++++ ",
".      . ++++++ ",
".      . ++++++ ",
".      . ++++++ ",
".      . ++++++ ",
".      . ++++++ ",
"........        ",
" .........  ... ",
"...       +... +",
"..       ++..  +",
".       +++.   +",
" +++++++++ .   +",
" ...  .... .   +",
"... +...  +.   +",
"..  +..   +.   +",
".   +.   ++.  ++",
".   +.  +++. +++",
".   + ++++  +++ ",
".   + ......... ",
".   +...       +",
".  ++..       ++",
". +++.       +++",
" +++  +++++++++ "};
